<?xml version="1.0" encoding="UTF-8"?>
<svg xmlns="http://www.w3.org/2000/svg" width="3777" height="3777" viewBox="0 0 3777 3777">
  <path d="M0,0 h188.85v188.85h-188.85z M188.85,0 h188.85v188.85h-188.85z M377.7,0 h188.85v188.85h-188.85z M566.55,0 h188.85v188.85h-188.85z M755.4,0 h188.85v188.85h-188.85z M944.25,0 h188.85v188.85h-188.85z M1133.1,0 h188.85v188.85h-188.85z M1321.95,0 h188.85v188.85h-188.85z M1510.8,0 h188.85v188.85h-188.85z M1699.65,0 h188.85v188.85h-188.85z M1888.5,0 h188.85v188.85h-188.85z M2077.35,0 h188.85v188.85h-188.85z M2266.2,0 h188.85v188.85h-188.85z M2455.05,0 h188.85v188.85h-188.85z M2643.9,0 h188.85v188.85h-188.85z M2832.75,0 h188.85v188.85h-188.85z M3021.6,0 h188.85v188.85h-188.85z M3210.45,0 h188.85v188.85h-188.85z M3399.3,0 h188.85v188.85h-188.85z M3588.15,0 h188.85v188.85h-188.85z M3777,0 h188.85v188.85h-188.85z M0,188.85 h188.85v188.85h-188.85z M188.85,188.85 h188.85v188.85h-188.85z M377.7,188.85 h188.85v188.85h-188.85z M566.55,188.85 h188.85v188.85h-188.85z M755.4,188.85 h188.85v188.85h-188.85z M944.25,188.85 h188.85v188.85h-188.85z M1133.1,188.85 h188.85v188.85h-188.85z M1321.95,188.85 h188.85v188.85h-188.85z M1510.8,188.85 h188.85v188.85h-188.85z M1699.65,188.85 h188.85v188.85h-188.85z M1888.5,188.85 h188.85v188.85h-188.85z M2077.35,188.85 h188.85v188.85h-188.85z M2266.2,188.85 h188.85v188.85h-188.85z M2455.05,188.85 h188.85v188.85h-188.85z M2643.9,188.85 h188.85v188.85h-188.85z M2832.75,188.85 h188.85v188.85h-188.85z M3021.6,188.85 h188.85v188.85h-188.85z M3210.45,188.85 h188.85v188.85h-188.85z M3399.3,188.85 h188.85v188.85h-188.85z M3588.15,188.85 h188.85v188.85h-188.85z M3777,188.85 h188.85v188.85h-188.85z M0,377.7 h188.85v188.85h-188.85z M188.85,377.7 h188.85v188.85h-188.85z M377.7,377.7 h188.85v188.85h-188.85z M566.55,377.7 h188.85v188.85h-188.85z M755.4,377.7 h188.85v188.85h-188.85z M944.25,377.7 h188.85v188.85h-188.85z M1133.1,377.7 h188.85v188.85h-188.85z M1321.95,377.7 h188.85v188.85h-188.85z M1510.8,377.7 h188.85v188.85h-188.85z M1699.65,377.7 h188.85v188.85h-188.85z M1888.5,377.7 h188.85v188.85h-188.85z M2077.35,377.7 h188.85v188.85h-188.85z M2266.2,377.7 h188.85v188.85h-188.85z M2455.05,377.7 h188.85v188.85h-188.85z M2643.9,377.7 h188.85v188.85h-188.85z M2832.75,377.7 h188.85v188.85h-188.85z M3021.6,377.7 h188.85v188.85h-188.85z M3210.45,377.7 h188.85v188.85h-188.85z M3399.3,377.7 h188.85v188.85h-188.85z M3588.15,377.7 h188.85v188.85h-188.85z M3777,377.7 h188.85v188.85h-188.85z M0,566.55 h188.85v188.85h-188.85z M188.85,566.55 h188.85v188.85h-188.85z M377.7,566.55 h188.85v188.85h-188.85z M566.55,566.55 h188.85v188.85h-188.85z M755.4,566.55 h188.85v188.85h-188.85z M944.25,566.55 h188.85v188.85h-188.85z M1133.1,566.55 h188.85v188.85h-188.85z M1321.95,566.55 h188.85v188.85h-188.85z M1510.8,566.55 h188.85v188.85h-188.85z M1699.65,566.55 h188.85v188.85h-188.85z M1888.5,566.55 h188.85v188.85h-188.85z M2077.35,566.55 h188.85v188.85h-188.85z M2266.2,566.55 h188.85v188.85h-188.85z M2455.05,566.55 h188.85v188.85h-188.85z M2643.9,566.55 h188.85v188.85h-188.85z M2832.75,566.55 h188.85v188.85h-188.85z M3021.6,566.55 h188.85v188.85h-188.85z M3210.45,566.55 h188.85v188.85h-188.85z M3399.3,566.55 h188.85v188.85h-188.85z M3588.15,566.55 h188.85v188.85h-188.85z M3777,566.55 h188.85v188.85h-188.85z M0,755.4 h188.85v188.85h-188.85z M188.85,755.4 h188.85v188.85h-188.85z M377.7,755.4 h188.85v188.85h-188.85z M566.55,755.4 h188.85v188.85h-188.85z M755.4,755.4 h188.85v188.85h-188.85z M944.25,755.4 h188.85v188.85h-188.85z M1133.1,755.4 h188.85v188.85h-188.85z M1321.95,755.4 h188.85v188.85h-188.85z M1510.8,755.4 h188.85v188.85h-188.85z M1699.65,755.4 h188.85v188.85h-188.85z M1888.5,755.4 h188.85v188.85h-188.85z M2077.35,755.4 h188.85v188.85h-188.85z M2266.2,755.4 h188.85v188.85h-188.85z M2455.05,755.4 h188.85v188.85h-188.85z M2643.9,755.4 h188.85v188.85h-188.85z M2832.75,755.4 h188.85v188.85h-188.85z M3021.6,755.4 h188.85v188.85h-188.85z M3210.45,755.4 h188.85v188.85h-188.85z M3399.3,755.4 h188.85v188.85h-188.85z M3588.15,755.4 h188.85v188.85h-188.85z M3777,755.4 h188.85v188.85h-188.85z M0,944.25 h188.85v188.85h-188.85z M188.85,944.25 h188.85v188.85h-188.85z M377.7,944.25 h188.85v188.85h-188.85z M566.55,944.25 h188.85v188.85h-188.85z M755.4,944.25 h188.85v188.85h-188.85z M944.25,944.25 h188.85v188.85h-188.85z M1133.1,944.25 h188.85v188.85h-188.85z M1321.95,944.25 h188.85v188.85h-188.85z M1510.8,944.25 h188.85v188.85h-188.85z M1699.65,944.25 h188.85v188.85h-188.85z M2455.05,944.25 h188.85v188.85h-188.85z M2643.9,944.25 h188.85v188.85h-188.85z M2832.75,944.25 h188.85v188.85h-188.85z M3021.6,944.25 h188.85v188.85h-188.85z M3210.45,944.25 h188.85v188.85h-188.85z M3399.3,944.25 h188.85v188.85h-188.85z M3588.15,944.25 h188.85v188.85h-188.85z M3777,944.25 h188.85v188.85h-188.85z M0,1133.1 h188.85v188.85h-188.85z M188.85,1133.1 h188.85v188.85h-188.85z M377.7,1133.1 h188.85v188.85h-188.85z M566.55,1133.1 h188.85v188.85h-188.85z M755.4,1133.1 h188.85v188.85h-188.85z M944.25,1133.1 h188.85v188.85h-188.85z M1133.1,1133.1 h188.85v188.85h-188.85z M1321.95,1133.1 h188.85v188.85h-188.85z M1510.8,1133.1 h188.85v188.85h-188.85z M1699.65,1133.1 h188.85v188.85h-188.85z M2643.9,1133.1 h188.85v188.85h-188.85z M2832.75,1133.1 h188.85v188.85h-188.85z M3021.6,1133.1 h188.85v188.85h-188.85z M3210.45,1133.1 h188.85v188.85h-188.85z M3399.3,1133.1 h188.85v188.85h-188.85z M3588.15,1133.1 h188.85v188.85h-188.85z M3777,1133.1 h188.85v188.85h-188.85z M0,1321.95 h188.85v188.85h-188.85z M188.85,1321.95 h188.85v188.85h-188.85z M377.7,1321.95 h188.85v188.85h-188.85z M566.55,1321.95 h188.85v188.85h-188.85z M755.4,1321.95 h188.85v188.85h-188.85z M944.25,1321.95 h188.85v188.85h-188.85z M1133.1,1321.95 h188.85v188.85h-188.85z M1321.95,1321.95 h188.85v188.85h-188.85z M1510.8,1321.95 h188.85v188.85h-188.85z M1699.65,1321.95 h188.85v188.85h-188.85z M1888.5,1321.95 h188.85v188.85h-188.85z M2455.05,1321.95 h188.85v188.85h-188.85z M2832.75,1321.95 h188.85v188.85h-188.85z M3021.6,1321.95 h188.85v188.85h-188.85z M3210.45,1321.95 h188.85v188.85h-188.85z M3399.3,1321.95 h188.85v188.85h-188.85z M3588.15,1321.95 h188.85v188.85h-188.85z M3777,1321.95 h188.85v188.85h-188.85z M0,1510.8 h188.85v188.85h-188.85z M188.85,1510.8 h188.85v188.85h-188.85z M377.7,1510.8 h188.85v188.85h-188.85z M566.55,1510.8 h188.85v188.85h-188.85z M755.4,1510.8 h188.85v188.85h-188.85z M944.25,1510.8 h188.85v188.85h-188.85z M1133.1,1510.8 h188.85v188.85h-188.85z M1321.95,1510.8 h188.85v188.85h-188.85z M2455.05,1510.8 h188.85v188.85h-188.85z M2832.75,1510.8 h188.85v188.85h-188.85z M3021.6,1510.8 h188.85v188.85h-188.85z M3210.45,1510.8 h188.85v188.85h-188.85z M3399.3,1510.8 h188.85v188.85h-188.85z M3588.15,1510.8 h188.85v188.85h-188.85z M3777,1510.8 h188.85v188.85h-188.85z M0,1699.65 h188.85v188.85h-188.85z M188.85,1699.65 h188.85v188.85h-188.85z M377.7,1699.65 h188.85v188.85h-188.85z M566.55,1699.65 h188.85v188.85h-188.85z M755.4,1699.65 h188.85v188.85h-188.85z M944.25,1699.65 h188.85v188.85h-188.85z M1321.95,1699.65 h188.85v188.85h-188.85z M2832.75,1699.65 h188.85v188.85h-188.85z M3021.6,1699.65 h188.85v188.85h-188.85z M3210.45,1699.65 h188.85v188.85h-188.85z M3399.3,1699.65 h188.85v188.85h-188.85z M3588.15,1699.65 h188.85v188.85h-188.85z M3777,1699.65 h188.85v188.85h-188.85z M0,1888.5 h188.85v188.85h-188.85z M188.85,1888.5 h188.85v188.85h-188.85z M377.7,1888.5 h188.85v188.85h-188.85z M566.55,1888.5 h188.85v188.85h-188.85z M755.4,1888.5 h188.85v188.85h-188.85z M944.25,1888.5 h188.85v188.85h-188.85z M1133.1,1888.5 h188.85v188.85h-188.85z M1321.95,1888.5 h188.85v188.85h-188.85z M2832.75,1888.5 h188.85v188.85h-188.85z M3021.6,1888.5 h188.85v188.85h-188.85z M3210.45,1888.5 h188.85v188.85h-188.85z M3399.3,1888.5 h188.85v188.85h-188.85z M3588.15,1888.5 h188.85v188.85h-188.85z M3777,1888.5 h188.85v188.85h-188.85z M0,2077.35 h188.85v188.85h-188.85z M188.85,2077.35 h188.85v188.85h-188.85z M377.7,2077.35 h188.85v188.85h-188.85z M566.55,2077.35 h188.85v188.85h-188.85z M755.4,2077.35 h188.85v188.85h-188.85z M944.25,2077.35 h188.85v188.85h-188.85z M1133.1,2077.35 h188.85v188.85h-188.85z M1321.95,2077.35 h188.85v188.85h-188.85z M1510.8,2077.35 h188.85v188.85h-188.85z M2832.75,2077.35 h188.85v188.85h-188.85z M3021.6,2077.35 h188.85v188.85h-188.85z M3210.45,2077.35 h188.85v188.85h-188.85z M3399.3,2077.35 h188.85v188.85h-188.85z M3588.15,2077.35 h188.85v188.85h-188.85z M3777,2077.35 h188.85v188.85h-188.85z M0,2266.2 h188.85v188.85h-188.85z M188.85,2266.2 h188.85v188.85h-188.85z M377.7,2266.2 h188.85v188.85h-188.85z M566.55,2266.2 h188.85v188.85h-188.85z M755.4,2266.2 h188.85v188.85h-188.85z M944.25,2266.2 h188.85v188.85h-188.85z M1133.1,2266.2 h188.85v188.85h-188.85z M1321.95,2266.2 h188.85v188.85h-188.85z M1699.65,2266.2 h188.85v188.85h-188.85z M2643.9,2266.2 h188.85v188.85h-188.85z M2832.75,2266.2 h188.85v188.85h-188.85z M3021.6,2266.2 h188.85v188.85h-188.85z M3210.45,2266.2 h188.85v188.85h-188.85z M3399.3,2266.2 h188.85v188.85h-188.85z M3588.15,2266.2 h188.85v188.85h-188.85z M3777,2266.2 h188.85v188.85h-188.85z M0,2455.05 h188.85v188.85h-188.85z M188.85,2455.05 h188.85v188.85h-188.85z M377.7,2455.05 h188.85v188.85h-188.85z M566.55,2455.05 h188.85v188.85h-188.85z M755.4,2455.05 h188.85v188.85h-188.85z M944.25,2455.05 h188.85v188.85h-188.85z M1133.1,2455.05 h188.85v188.85h-188.85z M1321.95,2455.05 h188.85v188.85h-188.85z M1699.65,2455.05 h188.85v188.85h-188.85z M2643.9,2455.05 h188.85v188.85h-188.85z M2832.75,2455.05 h188.85v188.85h-188.85z M3021.6,2455.05 h188.85v188.85h-188.85z M3210.45,2455.05 h188.85v188.85h-188.85z M3399.3,2455.05 h188.85v188.85h-188.85z M3588.15,2455.05 h188.85v188.85h-188.85z M3777,2455.05 h188.85v188.85h-188.85z M0,2643.9 h188.85v188.85h-188.85z M188.85,2643.9 h188.85v188.85h-188.85z M377.7,2643.9 h188.85v188.85h-188.85z M566.55,2643.9 h188.85v188.85h-188.85z M755.4,2643.9 h188.85v188.85h-188.85z M944.25,2643.9 h188.85v188.85h-188.85z M1133.1,2643.9 h188.85v188.85h-188.85z M1321.95,2643.9 h188.85v188.85h-188.85z M1699.65,2643.9 h188.85v188.85h-188.85z M1888.5,2643.9 h188.85v188.85h-188.85z M2077.35,2643.9 h188.85v188.85h-188.85z M2455.05,2643.9 h188.85v188.85h-188.85z M2643.9,2643.9 h188.85v188.85h-188.85z M2832.75,2643.9 h188.85v188.85h-188.85z M3021.6,2643.9 h188.85v188.85h-188.85z M3210.45,2643.9 h188.85v188.85h-188.85z M3399.3,2643.9 h188.85v188.85h-188.85z M3588.15,2643.9 h188.85v188.85h-188.85z M3777,2643.9 h188.85v188.85h-188.85z M0,2832.75 h188.85v188.85h-188.85z M188.85,2832.75 h188.85v188.85h-188.85z M377.7,2832.75 h188.85v188.85h-188.85z M566.55,2832.75 h188.85v188.85h-188.85z M755.4,2832.75 h188.85v188.85h-188.85z M944.25,2832.75 h188.85v188.85h-188.85z M1133.1,2832.75 h188.85v188.85h-188.85z M2455.05,2832.75 h188.85v188.85h-188.85z M2643.9,2832.75 h188.85v188.85h-188.85z M2832.75,2832.75 h188.85v188.85h-188.85z M3021.6,2832.75 h188.85v188.85h-188.85z M3210.45,2832.75 h188.85v188.85h-188.85z M3399.3,2832.75 h188.85v188.85h-188.85z M3588.15,2832.75 h188.85v188.85h-188.85z M3777,2832.75 h188.85v188.85h-188.85z M0,3021.6 h188.85v188.85h-188.85z M188.85,3021.6 h188.85v188.85h-188.85z M377.7,3021.6 h188.85v188.85h-188.85z M566.55,3021.6 h188.85v188.85h-188.85z M755.4,3021.6 h188.85v188.85h-188.85z M944.25,3021.6 h188.85v188.85h-188.85z M3021.6,3021.6 h188.85v188.85h-188.85z M3210.45,3021.6 h188.85v188.85h-188.85z M3399.3,3021.6 h188.85v188.85h-188.85z M3588.15,3021.6 h188.85v188.85h-188.85z M3777,3021.6 h188.85v188.85h-188.85z M0,3210.45 h188.85v188.85h-188.85z M188.85,3210.45 h188.85v188.85h-188.85z M377.7,3210.45 h188.85v188.85h-188.85z M566.55,3210.45 h188.85v188.85h-188.85z M755.4,3210.45 h188.85v188.85h-188.85z M3210.45,3210.45 h188.85v188.85h-188.85z M3399.3,3210.45 h188.85v188.85h-188.85z M3588.15,3210.45 h188.85v188.85h-188.85z M3777,3210.45 h188.85v188.85h-188.85z M0,3399.3 h188.85v188.85h-188.85z M188.85,3399.3 h188.85v188.85h-188.85z M377.7,3399.3 h188.85v188.85h-188.85z M566.55,3399.3 h188.85v188.85h-188.85z M3399.3,3399.3 h188.85v188.85h-188.85z M3588.15,3399.3 h188.85v188.85h-188.85z M3777,3399.3 h188.85v188.85h-188.85z M0,3588.15 h188.85v188.85h-188.85z M188.85,3588.15 h188.85v188.85h-188.85z M377.7,3588.15 h188.85v188.85h-188.85z M3399.3,3588.15 h188.85v188.85h-188.85z M3588.15,3588.15 h188.85v188.85h-188.85z M3777,3588.15 h188.85v188.85h-188.85z M0,3777 h188.85v188.85h-188.85z M188.85,3777 h188.85v188.85h-188.85z M377.7,3777 h188.85v188.85h-188.85z M3399.3,3777 h188.85v188.85h-188.85z M3588.15,3777 h188.85v188.85h-188.85z M3777,3777 h188.85v188.85h-188.85z" fill="#000000"/>
</svg>